<svg width="30" height="30" viewBox="0 0 30 30" fill="none" xmlns="http://www.w3.org/2000/svg">
<path d="M17.5915 2.16627L20.2312 7.48931C20.5911 8.23031 21.551 8.94105 22.3609 9.07715L27.1454 9.87863C30.2051 10.3928 30.925 12.6309 28.7202 14.8387L25.0006 18.5891C24.3707 19.2242 24.0257 20.4491 24.2207 21.3262L25.2856 25.9688C26.1255 29.6435 24.1907 31.065 20.9661 29.1444L16.4816 26.4678C15.6717 25.9839 14.3368 25.9839 13.5119 26.4678L9.0274 29.1444C5.81776 31.065 3.86797 29.6283 4.70788 25.9688L5.77276 21.3262C5.96774 20.4491 5.62278 19.2242 4.99285 18.5891L1.27326 14.8387C-0.9165 12.6309 -0.211578 10.3928 2.84808 9.87863L7.63256 9.07715C8.42747 8.94105 9.38736 8.23031 9.74732 7.48931L12.387 2.16627C13.8269 -0.722089 16.1666 -0.722089 17.5915 2.16627Z" fill="#8E83CE"/>
</svg>
