<svg width="30" height="30" viewBox="0 0 30 30" fill="none" xmlns="http://www.w3.org/2000/svg">
<path d="M0 4C0 1.79087 1.79086 0 4 0H9.40426C11.6134 0 13.4043 1.79086 13.4043 4V9.40428C13.4043 11.6134 11.6134 13.4043 9.40426 13.4043H4C1.79086 13.4043 0 11.6134 0 9.40428V4Z" fill="#9085D1"/>
<path d="M0 20.5958C0 18.3866 1.79086 16.5958 4 16.5958H9.40426C11.6134 16.5958 13.4043 18.3866 13.4043 20.5958V26.0001C13.4043 28.2092 11.6134 30.0001 9.40426 30.0001H4C1.79086 30.0001 0 28.2092 0 26.0001V20.5958Z" fill="#9085D1"/>
<path d="M16.5958 4C16.5958 1.79087 18.3867 0 20.5958 0H26.0001C28.2092 0 30.0001 1.79086 30.0001 4V9.40428C30.0001 11.6134 28.2092 13.4043 26.0001 13.4043H20.5958C18.3867 13.4043 16.5958 11.6134 16.5958 9.40428V4Z" fill="#9085D1"/>
<path d="M16.5958 20.5958C16.5958 18.3866 18.3867 16.5958 20.5958 16.5958H26.0001C28.2092 16.5958 30.0001 18.3866 30.0001 20.5958V26.0001C30.0001 28.2092 28.2092 30.0001 26.0001 30.0001H20.5958C18.3867 30.0001 16.5958 28.2092 16.5958 26.0001V20.5958Z" fill="#9085D1"/>
</svg>
